<svg height="310.217pt" viewBox="0 0 310.217 310.217" width="310.217pt"
  xmlns="http://www.w3.org/2000/svg">
  <path style="fill: #39f" d="M295.042,15.17C285.263,5.39,272.241,0,258.356,0c-13.864,0-26.891,5.385-36.665,15.159 l-71.192,71.197c-13.663,13.668-18.21,33.347-13.152,51.002c-4.645-1.338-9.475-2.029-14.343-2.029 c-13.853,0-26.874,5.385-36.643,15.17l-71.186,71.176C5.396,231.449,0,244.475,0,258.339c0,13.886,5.385,26.907,15.17,36.686 c9.79,9.79,22.822,15.191,36.686,15.191c13.88,0,26.907-5.401,36.676-15.191l71.186-71.176 c13.663-13.663,18.21-33.352,13.157-51.008c4.645,1.322,9.491,2.018,14.37,2.018c13.837,0,26.853-5.385,36.621-15.159 l71.176-71.165c9.774-9.774,15.175-22.806,15.175-36.692S304.811,24.938,295.042,15.17z M215.099,114.166 c2.556-2.529,3.976-5.912,4.009-9.627c-0.016-3.552-1.409-6.902-3.949-9.48c-4.944-4.96-14.12-4.96-19.064,0l-34.913,34.902 c-2.437-9.018-0.016-18.906,6.995-25.917l71.197-71.186c10.057-10.062,27.804-10.16,37.976,0.005 c10.47,10.47,10.47,27.511,0,37.981l-71.186,71.181c-6.652,6.663-16.66,9.35-25.852,6.94L215.099,114.166z M51.823,285.192 c-7.169,0-13.897-2.785-18.95-7.849c-5.069-5.053-7.854-11.797-7.854-18.999c0-7.169,2.785-13.913,7.854-18.977l71.165-71.159 c5.069-5.075,11.814-7.865,18.982-7.865c2.322,0,4.645,0.299,6.886,0.897l-37.062,37.062c-2.54,2.545-3.949,5.939-3.949,9.524 c0,3.552,1.382,6.913,3.954,9.556c4.988,4.971,14.158,4.911,19.053-0.016l37.111-37.111c2.448,9.018,0.016,18.906-6.995,25.917 l-71.176,71.17c-5.064,5.053-11.797,7.849-18.961,7.849l-0.027,8.082l0.005-8.082H51.823z"/>
</svg>
