<svg height="464pt" viewBox="0 -48 464.61593 464" width="464pt" 
    xmlns="http://www.w3.org/2000/svg">
    <path d="m396.675781 113.191406c-13.75-61.789062-66.242187-107.351562-129.347656-112.277344-63.109375-4.929687-122.035156 31.933594-145.210937 90.835938-44.757813-12.652344-92.152344 8.597656-112.472657 50.4375-20.320312 41.839844-7.722656 92.230469 29.898438 119.585938 37.617187 27.355468 89.433593 23.804687 122.972656-8.421876 50.863281 43.761719 125.265625 46.421876 179.121094 6.398438 27.480469 17.503906 62.832031 16.59375 89.375-2.300781s38.972656-52 31.429687-83.695313c-7.542968-31.699218-33.554687-55.652344-65.765625-60.5625zm0 0" fill="#4891d3"/>
    <g fill="#57b7eb">
        <path d="m384.117188 112.070312c-27.210938 0-52.558594 13.832032-67.28125 36.71875 31.660156-20.359374 73.226562-15.898437 99.84375 10.71875 26.617187 26.613282 31.078124 68.183594 10.71875 99.84375 29.847656-19.207031 43.476562-55.78125 33.46875-89.835937-10.007813-34.054687-41.253907-57.445313-76.75-57.445313zm0 0"/>
        <path d="m355.558594 117.429688c9.105468-3.542969 18.789062-5.359376 28.558594-5.359376 4.210937.003907 8.414062.378907 12.558593 1.121094-12.238281-55.300781-55.757812-98.289062-111.199219-109.851562-55.445312-11.5625-112.519531 10.453125-145.839843 56.25 35.125-25.46875 79.863281-33.738282 121.773437-22.515625 41.910156 11.222656 76.527344 40.742187 94.226563 80.355469zm0 0"/>
        <path d="m80.117188 120.070312c30.058593.019532 58.371093 14.121094 76.5 38.09375 18.128906 23.976563 23.984374 55.058594 15.820312 83.984376 23.585938-30.714844 26.40625-72.59375 7.152344-106.191407-19.253906-33.601562-56.808594-52.34375-95.234375-47.527343-38.425781 4.816406-70.195313 32.246093-80.558594 69.558593 18.128906-23.855469 46.355469-37.882812 76.320313-37.917969zm0 0"/>
    </g>
    <path d="m232.117188 336.070312c-44.183594 0-80-35.816406-80-80h24l-40-48-40 48h24c-.003907 45.300782 27.285156 86.144532 69.136718 103.480469 41.855469 17.339844 90.03125 7.753907 122.0625-24.28125l-22.640625-22.640625c-15 15.003906-35.34375 23.4375-56.558593 23.441406zm0 0" fill="#fcbc04"/>
    <path d="m231.316406 176.070312c44.183594 0 80 35.816407 80 80h-24l40 48 40-48h-24c.003906-45.300781-27.285156-86.144531-69.136718-103.484374-41.855469-17.335938-90.03125-7.75-122.0625 24.285156l22.640624 22.640625c15-15.003907 35.34375-23.4375 56.558594-23.441407zm0 0" fill="#fcbc04"/>
    <path d="m223.316406 160.070312c58.863282-.152343 107.796875 45.289063 112 104 0 4.417969 3.582032 8 8 8h10.960938l13.359375-16h-24c.132812-45.445312-27.203125-86.464843-69.199219-103.828124-41.996094-17.367188-90.320312-7.636719-122.320312 24.628906l4.960937 5.039062c19.167969-14.191406 42.390625-21.847656 66.238281-21.839844zm0 0" fill="#f9e109"/>
    <path d="m152.515625 264.070312c-4.433594-.019531-8.636719 1.960938-11.449219 5.394532-2.808594 3.429687-3.921875 7.941406-3.03125 12.285156 8.265625 36.46875 40.6875 62.347656 78.082032 62.320312 15.523437.023438 30.710937-4.511718 43.679687-13.039062-23.207031 8.558594-49.066406 5.90625-70.050781-7.191406-20.980469-13.097656-34.726563-35.164063-37.230469-59.769532zm0 0" fill="#f9e109"/>
    <path d="m153.476562 256.070312h22.640626l-40-48-11.359376 13.597657zm0 0" fill="#f9e109"/>
</svg>
