<?xml version="1.0" encoding="UTF-8" standalone="no"?>
<svg xmlns:svg="http://www.w3.org/2000/svg" xmlns="http://www.w3.org/2000/svg" width="16mm" height="4mm" viewBox="0 0 16 4" version="1.1">
   <g transform="translate(0,-293)">
      <path d="m 1.2156737,296.11887 c 0.6985,0 1.1654416,-0.42298 1.2375252,-0.90417 0.061039,-0.40746 -0.1163513,-0.64805 -0.4518536,-0.79163 L 1.661962,294.27949 c -0.2410009,-0.1009 -0.4140882,-0.16298 -0.390253,-0.32209 0.023252,-0.15522 0.16798,-0.24059 0.381411,-0.24059 0.225072,0 0.3919533,0.0776 0.5605901,0.22119 l 0.4104763,-0.43462 c -0.2144497,-0.25224 -0.548396,-0.3803 -0.882124,-0.3803 -0.613128,0 -1.10588244,0.38806 -1.17854728,0.87313 -0.0627823,0.4191 0.1827129,0.67133 0.46737558,0.79163 l 0.3454007,0.15522 c 0.2326586,0.10478 0.3836228,0.15911 0.3586267,0.32597 -0.023252,0.15522 -0.1580832,0.25224 -0.4142002,0.25224 -0.228953,0 -0.47868975,-0.1203 -0.65819968,-0.29493 l -0.46343837,0.47731 c 0.25752933,0.27552 0.64017988,0.41522 1.01659385,0.41522 z" style="fill:#dedede"/>
      <path d="m 2.8996876,296.91439 c 0.523875,0 0.8024439,-0.2794 1.1046272,-0.84596 l 1.0880598,-2.21192 h -0.655814 l -0.3933069,0.91581 c -0.081841,0.20955 -0.1630961,0.41522 -0.2371733,0.62477 h -0.0194 c -0.025656,-0.21731 -0.041411,-0.42298 -0.077152,-0.62477 l -0.1577341,-0.91581 h -0.69462 l 0.5250729,2.14207 -0.047897,0.11253 c -0.073702,0.15522 -0.198633,0.26388 -0.408183,0.26388 -0.05045,0 -0.1057498,-0.0194 -0.1433863,-0.0272 l -0.2026552,0.52387 c 0.089055,0.0272 0.1759894,0.0427 0.3195704,0.0427 z" style="fill:#dedede"/>
      <path d="m 5.5531647,296.11887 c 0.244475,0 0.4670023,-0.11253 0.6738047,-0.27552 h 0.01552 l 0.017315,0.22119 h 0.562681 l 0.1877643,-1.25341 c 0.1034748,-0.69074 -0.1709424,-1.00895 -0.7413844,-1.00895 -0.34537,0 -0.6771351,0.11642 -0.9943346,0.29104 l 0.172579,0.45403 c 0.2397945,-0.12418 0.4326442,-0.19403 0.6072692,-0.19403 0.225072,0 0.3025112,0.10477 0.2912919,0.28328 -0.8754306,0.0931 -1.2779934,0.34537 -1.3477521,0.81104 -0.055225,0.36865 0.1477889,0.67133 0.5552469,0.67133 z m 0.3169349,-0.53551 c -0.143581,0 -0.2274112,-0.0621 -0.208229,-0.19015 0.023252,-0.15522 0.1815549,-0.2794 0.6210169,-0.33761 l -0.0529,0.35313 c -0.1171726,0.10866 -0.2201881,0.17463 -0.3598881,0.17463 z" style="fill:#dedede"/>
      <path d="m 7.9027197,296.11887 c 0.244475,0 0.4670023,-0.11253 0.6738047,-0.27552 h 0.01552 l 0.017315,0.22119 h 0.562681 l 0.1877643,-1.25341 c 0.1034748,-0.69074 -0.1709424,-1.00895 -0.7413844,-1.00895 -0.34537,0 -0.6771351,0.11642 -0.9943346,0.29104 l 0.172579,0.45403 c 0.2397945,-0.12418 0.4326442,-0.19403 0.6072692,-0.19403 0.225072,0 0.3025112,0.10477 0.2912919,0.28328 -0.8754306,0.0931 -1.2779934,0.34537 -1.3477521,0.81104 -0.055225,0.36865 0.1477889,0.67133 0.5552469,0.67133 z m 0.3169349,-0.53551 c -0.143581,0 -0.2274112,-0.0621 -0.208229,-0.19015 0.023252,-0.15522 0.1815549,-0.2794 0.6210169,-0.33761 l -0.0529,0.35313 c -0.1171726,0.10866 -0.2201881,0.17463 -0.3598881,0.17463 z" style="fill:#dedede"/>
   </g>
</svg>
