<?xml version="1.0" encoding="UTF-8" standalone="no"?>
<svg xmlns:svg="http://www.w3.org/2000/svg" xmlns="http://www.w3.org/2000/svg" width="16mm" height="4mm" viewBox="0 0 16 4" version="1.1">
   <g transform="translate(0,-293)">
      <path d="m 0.20375297,296.86267 0.75670832,-3.77825 H 2.2780862 q 0.650875,0 0.9101667,0.31221 0.2592916,0.30692 0.1481666,0.87842 -0.074083,0.36512 -0.2698749,0.65616 -0.1905,0.29104 -0.5185834,0.46038 -0.3280833,0.16933 -0.8043333,0.16933 H 1.2620863 l -0.2592917,1.30175 z m 1.20120833,-2.00554 h 0.3915833 q 0.5820833,0 0.6932083,-0.56092 0.047625,-0.24871 -0.047625,-0.37571 -0.09525,-0.13229 -0.3757083,-0.13229 H 1.6166279 Z" style="fill:#dedede"/>
      <path d="m 4.5884775,296.91559 q -0.4550834,0 -0.7355417,-0.18521 -0.2751666,-0.1905 -0.3704166,-0.52917 -0.09525,-0.34396 -0.00529,-0.79904 0.089958,-0.4445 0.3175,-0.78317 0.2328333,-0.33866 0.5767916,-0.52387 0.34925,-0.1905 0.7990417,-0.1905 0.6561666,0 0.9525,0.40746 0.2963333,0.40746 0.1534583,1.11654 -0.084667,0.43921 -0.3122083,0.77787 -0.22225,0.33338 -0.5715,0.52388 -0.34925,0.18521 -0.8043333,0.18521 z m 0.1322916,-0.67734 q 0.2910417,0 0.4709584,-0.22225 0.1799166,-0.22754 0.2539999,-0.60325 0.074083,-0.37041 -0.015875,-0.59795 -0.089958,-0.23284 -0.3809999,-0.23284 -0.2963334,0 -0.4815417,0.23284 -0.1799167,0.22754 -0.254,0.59795 -0.079375,0.381 0.015875,0.60325 0.1005417,0.22225 0.3915833,0.22225 z" style="fill:#dedede"/>
      <path d="m 7.5814937,296.91559 q -0.2592917,0 -0.508,-0.037 -0.2434167,-0.0371 -0.4815417,-0.1323 l 0.1534584,-0.7567 q 0.2328333,0.11641 0.4974166,0.1852 0.2645833,0.0688 0.53975,0.0688 0.1852083,0 0.3175,-0.0423 0.1375833,-0.0476 0.15875,-0.16404 0.026458,-0.13758 -0.142875,-0.20637 -0.1693333,-0.0688 -0.4656667,-0.20109 -0.2275416,-0.10054 -0.3862916,-0.20637 -0.1534583,-0.11113 -0.22225,-0.26459 -0.0635,-0.15875 -0.015875,-0.39158 0.089958,-0.4445 0.460375,-0.65087 0.3704166,-0.21167 0.9207499,-0.21167 0.269875,0 0.5344584,0.0529 0.269875,0.0476 0.5238749,0.16933 l -0.3862916,0.64029 q -0.2116667,-0.10583 -0.41275,-0.14817 -0.2010833,-0.0476 -0.396875,-0.0476 -0.1693333,0 -0.2804583,0.0423 -0.1058333,0.0423 -0.1217083,0.13759 -0.026458,0.1217 0.1164166,0.1852 0.142875,0.0635 0.4497917,0.18521 0.2275416,0.09 0.396875,0.19579 0.174625,0.10584 0.2487083,0.26988 0.079375,0.16404 0.026458,0.42862 -0.084667,0.43392 -0.460375,0.66675 -0.3757083,0.23284 -1.0636249,0.23284 z" style="fill:#dedede"/>
      <path d="m 11.098385,296.91559 q -0.719667,0 -0.994833,-0.37042 -0.2751669,-0.37571 -0.1270002,-1.10067 0.1428752,-0.73025 0.5820832,-1.13241 0.439208,-0.40746 1.180042,-0.40746 0.238125,0 0.481541,0.0476 0.243417,0.0476 0.455084,0.15346 l -0.375709,0.64029 q -0.211666,-0.0847 -0.370416,-0.11641 -0.153459,-0.0317 -0.275167,-0.0317 -0.672042,0 -0.836083,0.80962 -0.08996,0.43921 0.05821,0.62971 0.148167,0.18521 0.470958,0.18521 0.15875,0 0.375709,-0.0476 0.216958,-0.0529 0.481541,-0.20637 l -0.148166,0.73554 q -0.254,0.11642 -0.486834,0.16404 -0.232833,0.0476 -0.470958,0.0476 z" style="fill:#dedede"/>
      <path d="m 13.699818,296.91559 q -0.481542,0 -0.66675,-0.24871 -0.185209,-0.24871 -0.105834,-0.65617 0.100542,-0.49741 0.465667,-0.71437 0.365125,-0.22225 0.92075,-0.23813 l 0.629708,-0.0212 0.02117,-0.11113 q 0.07408,-0.35983 -0.460375,-0.35983 -0.179917,0 -0.396875,0.0423 -0.216958,0.0423 -0.465667,0.13229 l -0.148166,-0.57679 q 0.291041,-0.13758 0.587375,-0.19579 0.301625,-0.0635 0.613833,-0.0635 1.275292,0 1.074208,1.00012 l -0.391583,1.95792 h -0.635 l -0.03704,-0.35983 h -0.02117 q -0.264584,0.254 -0.523875,0.33337 -0.254,0.0794 -0.460375,0.0794 z m 0.386291,-0.65617 q 0.248709,0 0.455084,-0.13229 0.211666,-0.13758 0.259291,-0.38629 l 0.04233,-0.19579 -0.386292,0.0106 q -0.3175,0.005 -0.497417,0.0952 -0.179916,0.09 -0.216958,0.28575 -0.03175,0.16933 0.0635,0.24871 0.09525,0.0741 0.280458,0.0741 z" style="fill:#dedede"/>
   </g>
</svg>
