<?xml version="1.0" encoding="UTF-8" standalone="no"?>
<svg xmlns:svg="http://www.w3.org/2000/svg" xmlns="http://www.w3.org/2000/svg" version="1.1" viewBox="0 0 512 512" width="512" height="512">
  <path d="M446.001,452.002h-5.001v-30c0-16.542-13.458-30-30-30h-0.72l-15.206-203.308c-1.75-23.402-19.706-41.049-41.767-41.049 H238.695c-5.523,0-10,4.477-10,10s4.477,10,10,10h114.611c11.48,0,20.862,9.69,21.823,22.541l15.094,201.816H266.001v-73.443 c7.933-2.049,14.912-6.485,20.143-12.483l45.385,22.692c1.412,0.706,2.943,1.056,4.472,1.056c1.829,0,3.652-0.501,5.258-1.494 c2.948-1.822,4.743-5.041,4.743-8.506v-80c0-3.466-1.794-6.685-4.743-8.506c-2.948-1.822-6.629-1.988-9.729-0.438l-45.385,22.692 c-7.339-8.415-18.126-13.748-30.142-13.748c-12.016,0-22.804,5.333-30.142,13.749l-45.386-22.693 c-3.1-1.55-6.782-1.384-9.729,0.438c-2.948,1.822-4.743,5.041-4.743,8.506v80c0,3.466,1.794,6.685,4.743,8.506 c1.606,0.993,3.429,1.494,5.258,1.494c1.528,0,3.061-0.35,4.472-1.056l45.386-22.693c5.23,5.998,12.209,10.434,20.142,12.483 v73.443H121.779l15.094-201.816c0.961-12.85,10.343-22.541,21.823-22.541c5.523,0,10-4.477,10-10s-4.477-10-10-10 c-22.06,0-40.016,17.647-41.767,41.049l-15.205,203.308h-0.72c-16.542,0-30,13.458-30,30v30h-5.001c-16.542,0-30,13.458-30,30v20 c0,5.523,4.477,10,10,10h420c5.523,0,10-4.477,10-10v-20C476.001,465.459,462.543,452.002,446.001,452.002z M326.001,256.004 v47.639L295.113,288.2c0.578-2.703,0.889-5.503,0.889-8.375c0-2.873-0.311-5.673-0.889-8.376L326.001,256.004z M186.001,303.644 v-47.639l30.889,15.444c-0.578,2.703-0.889,5.503-0.889,8.375c0,2.872,0.311,5.673,0.889,8.375L186.001,303.644z M236.001,279.824 c0-11.028,8.972-20,20-20s20,8.972,20,20c0,11.025-8.967,19.995-19.991,20c-0.003,0-0.007,0-0.01,0c-0.003,0-0.006,0-0.009,0 C244.968,299.819,236.001,290.849,236.001,279.824z M456.001,492.002h-400v-10c0-5.514,4.486-10,10-10h244.998 c5.523,0,10-4.477,10-10s-4.477-10-10-10H91.002v-30c0-5.514,4.486-10,10-10H111c0.004,0,0.009,0,0.013,0c0.003,0,0.007,0,0.01,0 h289.955c0.003,0,0.007,0,0.01,0c0.004,0,0.009,0,0.013,0H411c5.514,0,10,4.486,10,10v30h-30.001c-5.523,0-10,4.477-10,10 s4.477,10,10,10h55.003c5.514,0,10,4.486,10,10V492.002z"/>
  <path d="M256.001,78.561c5.523,0,10-4.477,10-10V10c0-5.523-4.477-10-10-10s-10,4.477-10,10v58.561 C246.001,74.083,250.478,78.561,256.001,78.561z"/>
  <path d="M356.633,105.525c1.575,0.91,3.294,1.342,4.991,1.342c3.456,0,6.817-1.794,8.669-5.002l29.28-50.715 c2.762-4.783,1.123-10.899-3.66-13.66c-4.781-2.762-10.898-1.123-13.66,3.66l-29.28,50.715 C350.211,96.647,351.849,102.764,356.633,105.525z"/>
  <path d="M141.709,101.865c1.852,3.208,5.213,5.002,8.669,5.002c1.696,0,3.416-0.433,4.991-1.342 c4.783-2.761,6.422-8.877,3.66-13.66l-29.28-50.715c-2.762-4.783-8.877-6.423-13.66-3.66c-4.783,2.761-6.422,8.877-3.66,13.66 L141.709,101.865z"/>
  <path d="M198.699,167.646c5.523,0,10-4.477,10-10s-4.477-10-10-10h-0.007c-5.523,0-9.996,4.477-9.996,10 S193.176,167.646,198.699,167.646z"/>
  <path d="M351.002,452.002h-0.007c-5.523,0-9.996,4.477-9.996,10s4.48,10,10.003,10s10-4.477,10-10 S356.525,452.002,351.002,452.002z"/>
</svg>
